<svg version="1.0" xmlns="http://www.w3.org/2000/svg"
 width="64.000000pt" height="64.000000pt" viewBox="0 0 64.000000 64.000000"
 preserveAspectRatio="xMidYMid meet">

<g transform="translate(0.000000,64.000000) scale(0.100000,-0.100000)"
fill="#000000" stroke="none">
<path d="M0 320 l0 -320 320 0 320 0 0 320 0 320 -320 0 -320 0 0 -320z m270
189 c0 -5 -13 -67 -30 -136 -17 -69 -30 -129 -30 -134 0 -5 23 -9 50 -9 55 0
56 -2 39 -63 l-10 -37 -105 0 c-96 0 -105 2 -100 18 3 9 21 91 41 182 20 91
38 171 40 178 5 15 105 17 105 1z m260 0 c0 -5 -5 -30 -11 -55 -11 -43 -13
-44 -50 -44 -22 0 -39 -3 -39 -7 0 -5 -3 -18 -6 -30 -6 -20 -3 -23 25 -23 19
0 34 -6 37 -15 7 -17 -33 -173 -48 -192 -6 -8 -35 -13 -73 -13 l-63 0 12 47
c12 47 13 48 53 51 32 2 42 8 47 25 11 41 7 47 -28 47 -19 0 -37 3 -39 8 -7
10 40 181 54 198 14 17 129 20 129 3z"/>
</g>
</svg>